<svg width="1440" height="1024" viewBox="0 0 1440 1024" fill="none" xmlns="http://www.w3.org/2000/svg">
<rect width="1440" height="1024" fill="white"/>
<path d="M236.082 234.002L228.084 215.51L224.85 233H221.861L227.082 206.246L236.082 227.533L245.082 206.246L250.303 233H247.314L244.045 215.51L236.082 234.002ZM266.826 230.803C268.232 230.803 269.568 230.539 270.834 230.012C272.111 229.473 273.26 228.693 274.279 227.674C275.287 226.666 276.055 225.523 276.582 224.246C277.109 222.969 277.373 221.615 277.373 220.186C277.373 218.744 277.104 217.373 276.564 216.072C276.037 214.771 275.275 213.623 274.279 212.627C273.271 211.619 272.129 210.852 270.852 210.324C269.586 209.797 268.244 209.533 266.826 209.533C265.396 209.533 264.043 209.797 262.766 210.324C261.488 210.852 260.357 211.619 259.373 212.627C258.365 213.646 257.598 214.801 257.07 216.09C256.543 217.379 256.279 218.744 256.279 220.186C256.279 221.615 256.537 222.963 257.053 224.229C257.58 225.494 258.354 226.643 259.373 227.674C260.404 228.705 261.547 229.484 262.801 230.012C264.066 230.539 265.408 230.803 266.826 230.803ZM280.572 220.186C280.572 222.025 280.232 223.76 279.553 225.389C278.873 227.018 277.883 228.465 276.582 229.73C275.281 230.996 273.781 231.975 272.082 232.666C270.395 233.346 268.643 233.686 266.826 233.686C265.01 233.686 263.258 233.346 261.57 232.666C259.895 231.975 258.406 230.996 257.105 229.73C255.793 228.453 254.791 227 254.1 225.371C253.42 223.742 253.08 222.014 253.08 220.186C253.08 218.346 253.42 216.611 254.1 214.982C254.791 213.342 255.793 211.883 257.105 210.605C258.395 209.352 259.883 208.385 261.57 207.705C263.258 207.025 265.01 206.686 266.826 206.686C268.654 206.686 270.412 207.025 272.1 207.705C273.799 208.385 275.293 209.352 276.582 210.605C277.883 211.871 278.873 213.324 279.553 214.965C280.232 216.594 280.572 218.334 280.572 220.186ZM285.582 233V207.266H288.641V217.162H302.316V207.266H305.428V233H302.316V220.08H288.641V233H285.582Z" fill="black"/>
<path d="M295.232 243.014L291.137 252.488H299.328L295.232 243.014ZM295.232 236.246L306.939 263H303.617L300.277 255.107H290.223L286.883 263H283.561L295.232 236.246ZM309.594 263V237.266H312.652V260.082H322.373V263H309.594ZM326.047 263V237.266H329.105V263H326.047Z" fill="black"/>
<path d="M295.082 294.002L287.084 275.51L283.85 293H280.861L286.082 266.246L295.082 287.533L304.082 266.246L309.303 293H306.314L303.045 275.51L295.082 294.002ZM325.246 294.002L317.248 275.51L314.014 293H311.025L316.246 266.246L325.246 287.533L334.246 266.246L339.467 293H336.479L333.209 275.51L325.246 294.002ZM343.422 293V267.266H356.992V270.061H346.48V277.443H356.992V280.291H346.48V290.152H356.992V293H343.422ZM365.289 290.117H367.24C370.404 290.117 372.596 289.982 373.814 289.713C375.033 289.432 376.047 288.957 376.855 288.289C377.91 287.41 378.713 286.279 379.264 284.896C379.814 283.502 380.09 281.908 380.09 280.115C380.09 278.311 379.814 276.729 379.264 275.369C378.725 273.998 377.922 272.867 376.855 271.977C376.047 271.297 375.016 270.816 373.762 270.535C372.52 270.242 370.346 270.096 367.24 270.096H365.289V290.117ZM362.195 293V267.266H367.135C370.791 267.266 373.363 267.453 374.852 267.828C376.352 268.191 377.664 268.807 378.789 269.674C380.266 270.811 381.385 272.264 382.146 274.033C382.908 275.803 383.289 277.842 383.289 280.15C383.289 282.447 382.908 284.48 382.146 286.25C381.396 288.008 380.277 289.455 378.789 290.592C377.664 291.459 376.381 292.08 374.939 292.455C373.51 292.818 371.277 293 368.242 293H367.135H362.195Z" fill="black"/>
<path d="M236.082 234.002L228.084 215.51L224.85 233H221.861L227.082 206.246L236.082 227.533L245.082 206.246L250.303 233H247.314L244.045 215.51L236.082 234.002ZM266.826 230.803C268.232 230.803 269.568 230.539 270.834 230.012C272.111 229.473 273.26 228.693 274.279 227.674C275.287 226.666 276.055 225.523 276.582 224.246C277.109 222.969 277.373 221.615 277.373 220.186C277.373 218.744 277.104 217.373 276.564 216.072C276.037 214.771 275.275 213.623 274.279 212.627C273.271 211.619 272.129 210.852 270.852 210.324C269.586 209.797 268.244 209.533 266.826 209.533C265.396 209.533 264.043 209.797 262.766 210.324C261.488 210.852 260.357 211.619 259.373 212.627C258.365 213.646 257.598 214.801 257.07 216.09C256.543 217.379 256.279 218.744 256.279 220.186C256.279 221.615 256.537 222.963 257.053 224.229C257.58 225.494 258.354 226.643 259.373 227.674C260.404 228.705 261.547 229.484 262.801 230.012C264.066 230.539 265.408 230.803 266.826 230.803ZM280.572 220.186C280.572 222.025 280.232 223.76 279.553 225.389C278.873 227.018 277.883 228.465 276.582 229.73C275.281 230.996 273.781 231.975 272.082 232.666C270.395 233.346 268.643 233.686 266.826 233.686C265.01 233.686 263.258 233.346 261.57 232.666C259.895 231.975 258.406 230.996 257.105 229.73C255.793 228.453 254.791 227 254.1 225.371C253.42 223.742 253.08 222.014 253.08 220.186C253.08 218.346 253.42 216.611 254.1 214.982C254.791 213.342 255.793 211.883 257.105 210.605C258.395 209.352 259.883 208.385 261.57 207.705C263.258 207.025 265.01 206.686 266.826 206.686C268.654 206.686 270.412 207.025 272.1 207.705C273.799 208.385 275.293 209.352 276.582 210.605C277.883 211.871 278.873 213.324 279.553 214.965C280.232 216.594 280.572 218.334 280.572 220.186ZM285.582 233V207.266H288.641V217.162H302.316V207.266H305.428V233H302.316V220.08H288.641V233H285.582Z" fill="black"/>
<path d="M295.232 243.014L291.137 252.488H299.328L295.232 243.014ZM295.232 236.246L306.939 263H303.617L300.277 255.107H290.223L286.883 263H283.561L295.232 236.246ZM309.594 263V237.266H312.652V260.082H322.373V263H309.594ZM326.047 263V237.266H329.105V263H326.047Z" fill="black"/>
<path d="M295.082 294.002L287.084 275.51L283.85 293H280.861L286.082 266.246L295.082 287.533L304.082 266.246L309.303 293H306.314L303.045 275.51L295.082 294.002ZM325.246 294.002L317.248 275.51L314.014 293H311.025L316.246 266.246L325.246 287.533L334.246 266.246L339.467 293H336.479L333.209 275.51L325.246 294.002ZM343.422 293V267.266H356.992V270.061H346.48V277.443H356.992V280.291H346.48V290.152H356.992V293H343.422ZM365.289 290.117H367.24C370.404 290.117 372.596 289.982 373.814 289.713C375.033 289.432 376.047 288.957 376.855 288.289C377.91 287.41 378.713 286.279 379.264 284.896C379.814 283.502 380.09 281.908 380.09 280.115C380.09 278.311 379.814 276.729 379.264 275.369C378.725 273.998 377.922 272.867 376.855 271.977C376.047 271.297 375.016 270.816 373.762 270.535C372.52 270.242 370.346 270.096 367.24 270.096H365.289V290.117ZM362.195 293V267.266H367.135C370.791 267.266 373.363 267.453 374.852 267.828C376.352 268.191 377.664 268.807 378.789 269.674C380.266 270.811 381.385 272.264 382.146 274.033C382.908 275.803 383.289 277.842 383.289 280.15C383.289 282.447 382.908 284.48 382.146 286.25C381.396 288.008 380.277 289.455 378.789 290.592C377.664 291.459 376.381 292.08 374.939 292.455C373.51 292.818 371.277 293 368.242 293H367.135H362.195Z" fill="black"/>
<rect x="240" y="246" width="10" height="10" rx="5" fill="#171616"/>
<rect x="255" y="258" width="10" height="10" rx="5" fill="#151313"/>
<g filter="url(#filter0_b)">
<rect x="240" y="258" width="10" height="10" rx="5" fill="#9B9F9F"/>
</g>
<rect x="255" y="246" width="10" height="10" rx="5" fill="#F9FD28"/>
<defs>
<filter id="filter0_b" x="236" y="254" width="18" height="18" filterUnits="userSpaceOnUse" color-interpolation-filters="sRGB">
<feFlood flood-opacity="0" result="BackgroundImageFix"/>
<feGaussianBlur in="BackgroundImage" stdDeviation="2"/>
<feComposite in2="SourceAlpha" operator="in" result="effect1_backgroundBlur"/>
<feBlend mode="normal" in="SourceGraphic" in2="effect1_backgroundBlur" result="shape"/>
</filter>
</defs>
</svg>
